<svg data-name="Layer 1" id="Layer_1" viewBox="0 0 220 78.6" xmlns="http://www.w3.org/2000/svg">
    <defs>
        <linearGradient gradientTransform="matrix(58.62, 33.21, 27.33, -71.22, 24947.93, 94634.42)"
            gradientUnits="userSpaceOnUse" id="linear-gradient" x1="-857.4" x2="-856.4" y1="927.23"
            y2="927.23">
            <stop offset="0" stop-color="#0d7ce9" />
            <stop offset="1" stop-color="#15cff1" />
        </linearGradient>
    </defs>
    <g id="dd13f022-7dd8-4bb2-a434-8bba2baad734">
        <path
            d="M143.5,124.7v22.7L117.7,124v34.4H123V135.8l25.8,23.4V124.7Zm10.8,2.9a2.8,2.8,0,0,0,1,2.2,3.3,3.3,0,0,0,2.3.9,3.2,3.2,0,0,0,2.3-.9,2.8,2.8,0,0,0,1-2.2,2.7,2.7,0,0,0-1-2.2,3.3,3.3,0,0,0-2.3-1,3.4,3.4,0,0,0-2.3,1A2.7,2.7,0,0,0,154.3,127.6Zm.8,8.7v22.1h5.1V136.3Zm24.6,0-5.3,7-5.3-7h-5.8l8.2,10.7-8.7,11.4h5.8l5.8-7.6,5.8,7.6H186L177.3,147l8.2-10.7Zm9.4-11.6v33.7h18.6v-4.8H194.4V124.7Zm24.2,17.9a11.5,11.5,0,0,1,6.8-2.4c3.1,0,4.7.9,4.7,2.6v2.9a11.4,11.4,0,0,0-5.7-1.3,12.2,12.2,0,0,0-7.1,2,6.8,6.8,0,0,0-2.9,5.8,5.7,5.7,0,0,0,2.4,5,9.2,9.2,0,0,0,5.7,1.7,11.4,11.4,0,0,0,4.6-.9,7.9,7.9,0,0,0,3-2.7v3.1h5.1V142.5a5.7,5.7,0,0,0-2.7-5.1,13.3,13.3,0,0,0-7.1-1.6,14.2,14.2,0,0,0-8.7,2.9Zm.7,9.1a3.2,3.2,0,0,1,1.6-2.6,8.3,8.3,0,0,1,4.1-1,16,16,0,0,1,5.1.8v.9c0,1.9-.5,3.3-1.5,4.1a8.2,8.2,0,0,1-4.6,1.1C215.6,155,214,153.9,214,151.7Zm46-4.3c0-3.7-1.1-6.6-3.2-8.6a11.4,11.4,0,0,0-8-3,8.7,8.7,0,0,0-7.9,4.4V120.8h-5v37.6h5v-3.9a8.7,8.7,0,0,0,7.9,4.4,11.4,11.4,0,0,0,8-3C258.9,153.9,260,151,260,147.4Zm-5.1,0a6.5,6.5,0,0,1-2,5.1,7.1,7.1,0,0,1-5.1,1.8,7.2,7.2,0,0,1-4.9-1.7,6.6,6.6,0,0,1-2-5.2c0-2.4.7-4.2,2-5.3a7.2,7.2,0,0,1,4.9-1.7,6.6,6.6,0,0,1,7.1,7Z"
            transform="translate(-40 -110.7)" />
    </g>
    <g id="c45c1b60-6b2a-4f20-8d11-68c873b04736">
        <path style="fill:url(#linear-gradient)"
            d="M40,155.5l64.7-22.4L40,110.7Zm64.7,33.8V144.5L40,166.9Z"
            transform="translate(-40 -110.7)" />
    </g>
    <g data-name="229b7d0d-8a5c-4032-aac0-01f8c6ed1405" id="_229b7d0d-8a5c-4032-aac0-01f8c6ed1405">
        <path
            d="M117.7,172.3h0a2.8,2.8,0,0,1,.3-1.3h0a1.6,1.6,0,0,1,.7-.9h0l.9-.6h2.8v-.2h.3c0,.5.1,1,.1,1.6h-.3v-.3h0v-.2H122l-.6-.2h-.7a2.4,2.4,0,0,0-1.7.7h0a2.3,2.3,0,0,0-.6,1.6h0a2.4,2.4,0,0,0,.7,1.8h0a2.3,2.3,0,0,0,1.7.8h0l1.2-.3h0a1.7,1.7,0,0,0,.6-.6h0v-.6h.3v1.2h-.1l-.3.2h0l-.5.2h0l-.6.2h-.7a2.8,2.8,0,0,1-2.1-.7h0A2.2,2.2,0,0,1,117.7,172.3Zm10.1-.2h0a5,5,0,0,1,.2-1.2h0a2.2,2.2,0,0,1,.7-.9h0a2,2,0,0,1,.9-.6h1a2.8,2.8,0,0,1,1.3.3h0a2.4,2.4,0,0,1,1.1.9h0a2.9,2.9,0,0,1,.4,1.6h0a3,3,0,0,1-.2,1h0a1.9,1.9,0,0,1-.5.9h0a2.2,2.2,0,0,1-.9.7h0a2.7,2.7,0,0,1-1.3.2h0a2.5,2.5,0,0,1-1.2-.2h0a2.4,2.4,0,0,1-.8-.6h0a2,2,0,0,1-.5-.9h0A2.2,2.2,0,0,1,127.8,172.1Zm.7-.2h0a3.1,3.1,0,0,0,.3,1.3h0a2.3,2.3,0,0,0,.7,1h0a2,2,0,0,0,1.3.4h0a1.8,1.8,0,0,0,1.3-.6h0a2.4,2.4,0,0,0,.6-1.7h0a3.2,3.2,0,0,0-.7-2h0a2.1,2.1,0,0,0-1.6-.7h-.6l-.6.4h0a1.3,1.3,0,0,0-.5.7h0A3.1,3.1,0,0,0,128.5,171.9Zm9.7-2.2v-.3h3.5l.9.3h0l.9.9h0a5.1,5.1,0,0,1,.2,1.3h0v.7h0a3,3,0,0,1-.4.8h0a1.8,1.8,0,0,1-.5.7h0a3.1,3.1,0,0,1-1,.5h0l-1.3.2h-2.1v-.3h.6v-.4h0V170h0v-.3h-.7Zm1.4.4v4h0c0,.2,0,.3.1.3h.6l1.1-.2h0l.7-.3h0l.5-.6h0a1.4,1.4,0,0,0,.2-.6h0a1.5,1.5,0,0,0,.1-.7h0a1.1,1.1,0,0,0-.2-.8h0a3,3,0,0,0-.4-.8h0a1.9,1.9,0,0,0-.9-.5h0a2.1,2.1,0,0,0-1.2-.3h-.5a.4.4,0,0,0-.1.3Zm8.7-.4v-.3h4.2v1.3h-.3v-.6h0a.4.4,0,0,0-.1-.3h0a.1.1,0,0,0-.1-.1h-2.2v.3h0v1.1h0v.3h1.7c.1,0,.1-.2.1-.3h0v-.4h.3v1.9h-.3v-.4h0c0-.2,0-.4-.1-.4h-1.7v.2h0v1.9h0v.3H152c.2,0,.4-.1.4-.2h0v-.7h.3l-.2,1.2h-4.1v-.3h.5a.4.4,0,0,0,.1-.3h0V170h0a.4.4,0,0,0-.1-.3h-.7Zm14.8,1h-.2a5.3,5.3,0,0,1,.1-1.3h4.7a5.4,5.4,0,0,1-.1.8h0v.5h-.3V170h0v-.2h-1.7v.3h0v4h0v.3h.8v.3h-2.2v-.3h.6a.4.4,0,0,0,.1-.3h0v-4h0c0-.2,0-.4-.1-.4h0c0-.1-.1-.1-.3-.1h-1.1a.1.1,0,0,1-.1.1h-.1v.2h0v.2h-.1Zm9.3,1.4h0a2.7,2.7,0,0,1,.3-1.2h0a1.5,1.5,0,0,1,.6-.9h0a4.7,4.7,0,0,1,.9-.6h1.1a3.1,3.1,0,0,1,1.3.3h0a2.2,2.2,0,0,1,1,.9h0a3,3,0,0,1,.5,1.6h0a3,3,0,0,1-.2,1h0a1.5,1.5,0,0,1-.6.9h0a2.2,2.2,0,0,1-.9.7h0a2.2,2.2,0,0,1-1.2.2h0a2.3,2.3,0,0,1-1.2-.2h0a2,2,0,0,1-.9-.6h0a4.1,4.1,0,0,1-.5-.9h0A4.3,4.3,0,0,1,172.4,172.1Zm.8-.2h0a3,3,0,0,0,.2,1.3h0a2.5,2.5,0,0,0,.8,1h0a1.7,1.7,0,0,0,1.2.4h0a2,2,0,0,0,1.4-.6h0a2.9,2.9,0,0,0,.5-1.7h0a2.7,2.7,0,0,0-.7-2h0a1.8,1.8,0,0,0-1.5-.7h-.6l-.7.4h0c-.2.1-.3.4-.5.7h0A3.4,3.4,0,0,0,173.2,171.9Zm15.5-2.2h-.3v-.3h2v.3h-.5c-.1.1-.1.2-.1.4h0v4h0c0,.2,0,.3.1.3h.7v.3h-2.1v-.3h.6v-.3h0V170h0v-.3h-.4Zm6.4,0v-.3h1.2l3.4,4.3V170h0a.4.4,0,0,0-.1-.3H199v-.3h1.7v.3h-.2c-.2,0-.3,0-.3.1h0c-.1,0-.1.1-.1.3h0v4.7h-.4l-3.5-4.6v3.9h0c0,.2,0,.3.1.3h.6v.3h-1.7v-.3h.6v-.3h0v-4.3h-.7Zm10.1,0v-.3h1.3l3.3,4.3V170h0v-.3h-.7v-.3h1.8v.3h-.6a.4.4,0,0,0-.1.3h0v4.7h-.3l-3.6-4.6v3.9h0a.4.4,0,0,0,.1.3h.7v.3h-1.7v-.3h.5a.4.4,0,0,0,.1-.3h0v-4.3h-.8Zm10.4,2.4h0a5,5,0,0,1,.2-1.2h0a2.2,2.2,0,0,1,.7-.9h0l.9-.6h1a3.2,3.2,0,0,1,1.4.3h0a2.8,2.8,0,0,1,1,.9h0a2.9,2.9,0,0,1,.4,1.6h0a3.1,3.1,0,0,1-.1,1h0a2,2,0,0,1-.6.9h0a2.2,2.2,0,0,1-.9.7h0a2.3,2.3,0,0,1-1.2.2h0a2.2,2.2,0,0,1-1.2-.2h0a2,2,0,0,1-.9-.6h0a4.1,4.1,0,0,1-.5-.9h0A4.3,4.3,0,0,1,215.6,172.1Zm.7-.2h0a3.1,3.1,0,0,0,.3,1.3h0a1.9,1.9,0,0,0,.8,1h0a1.6,1.6,0,0,0,1.2.4h0a1.6,1.6,0,0,0,1.3-.6h0a2.4,2.4,0,0,0,.6-1.7h0a2.7,2.7,0,0,0-.7-2h0a1.8,1.8,0,0,0-1.5-.7h-.7l-.6.4h0a1.3,1.3,0,0,0-.5.7h0A3.1,3.1,0,0,0,216.3,171.9Zm10-2.2H226v-.3h2v.3h-.4c-.1,0-.2,0-.2.1h0a.8.8,0,0,0,.1.4h0L229,174l1.7-4h0a.1.1,0,0,0-.1-.1h-.5v-.3h1.7v.3h-.5l-.3.7h0c-.1.2-.1.3-.2.3h0l-1.8,4.1h-.1l-1.9-4.6h0c-.1-.3-.2-.5-.3-.5h-.3Zm10,5.1v-.3h.4l.2-.5h0l.6-1.2.3-.7h0a1.1,1.1,0,0,1,.2-.4h0v-.2h0l.9-2h.1c.4.8,1,2.3,1.8,4.4h0l.4.8h.5v.3h-1.9v-.3h.6v-.3h0l-.6-1.4h-1.9l-.6,1.4h0a.4.4,0,0,0-.1.3h.7v.3Zm2.6-4.4-.8,1.9h1.6Zm7.5.3h-.3c.1-.5.1-.9.2-1.3H251a3.2,3.2,0,0,0-.1.8h0v.5h-.3V170h0c0-.1,0-.2-.1-.2h0c0-.1-.1-.1-.3-.1h-1.3v.3h0v4h0v.3h.8v.3h-2.2v-.3h.6a.4.4,0,0,0,.1-.3h0v-4h0c0-.2,0-.4-.1-.4h0c0-.1-.1-.1-.3-.1h-1.1a.1.1,0,0,1-.1.1h-.1v.2h0v.2h0Zm9.1-1v-.3h4.2v1.3h-.3v-.6h0a.4.4,0,0,0-.1-.3h0a.1.1,0,0,0-.1-.1H257v.3h0v1.1h0v.3h1.7c.1,0,.1-.2.1-.3h0v-.4h.3v1.9h-.3v-.4h0c0-.2,0-.4-.1-.4H257v.2h0v1.9h0v.3h2.2c.2,0,.4-.1.4-.2h0v-.7h.3l-.2,1.2h-4.1v-.3h.5a.4.4,0,0,0,.1-.3h0V170h0a.4.4,0,0,0-.1-.3h-.7Z"
            transform="translate(-40 -110.7)" />
    </g>
</svg>