<svg height="70.967" viewBox="0 0 70.967 70.967" width="70.967" xmlns="http://www.w3.org/2000/svg">
    <defs>
        <clipPath id="clip-path">
            <path
                d="M2481.069,2332.562s3.431.3,5.262,5.195.7,35.243-6.42,43.424c0,0-51.828,3.032-53.489-8.508s10.9-15.16,14.86-28.189S2468.27,2319.193,2481.069,2332.562Z"
                data-name="Path 460" fill="#076855" id="Path_460"
                transform="translate(-2426.271 -2326.777)" />
        </clipPath>
        <clipPath id="clip-path-2">
            <path
                d="M2533.852,2606.059s-3.49,1.08-2.56,5.4-.088,5.815-1.311,8.39-3.768,3.572.612,6.563,26.484,10.384,37.892,4.652c3.91-1.883-.113-4.153-.521-5.714s2.354-3.44,1.539-5.915-7.47-2.327-12.45-3.1S2541.117,2603.059,2533.852,2606.059Z"
                data-name="Path 466" fill="#f7c139" id="Path_466"
                transform="translate(-2528.127 -2605.595)" />
        </clipPath>
        <clipPath id="clip-path-3">
            <path
                d="M2613.288,2458.886s3.017,20.163-1.205,28.648-14.633,9.149-21.279,5.161-8.521-8.7-8.41-13.466c0,0-4.779-1.146-4.668-7.608s5.3-5.019,6.4-3.579c0,0,.416-4.119,4.292-4.728S2606.144,2463.04,2613.288,2458.886Z"
                data-name="Path 469" fill="#feb98f" id="Path_469"
                transform="translate(-2577.723 -2458.886)" />
        </clipPath>
        <clipPath id="clip-path-4">
            <path
                d="M2688.512,2541.422a4.744,4.744,0,0,0-5-3.834,3.9,3.9,0,0,0-3.569,4.581c.448,2.291,1.527,3.038,4.78,2.955S2689.076,2543.58,2688.512,2541.422Z"
                data-name="Path 473" fill="#fff" id="Path_473"
                transform="translate(-2679.878 -2537.585)" />
        </clipPath>
        <clipPath id="clip-path-5">
            <path
                d="M2796.373,2543.472a4.321,4.321,0,0,0-4.549-3.491,3.547,3.547,0,0,0-3.249,4.171c.408,2.086,1.39,2.766,4.353,2.69S2796.886,2545.436,2796.373,2543.472Z"
                data-name="Path 476" fill="#fff" id="Path_476"
                transform="translate(-2788.511 -2539.978)" />
        </clipPath>
    </defs>
    <g data-name="Group 574" id="Group_574" transform="translate(-150.366 -467.022)">
        <g data-name="Group 325" id="Group_325" transform="translate(150.366 467.022)">
            <circle cx="35.483" cy="35.483" data-name="Ellipse 31" fill="#cffcdd" id="Ellipse_31"
                r="35.483" />
        </g>
        <g data-name="Group 456" id="Group_456" transform="translate(150.667 470.426)">
            <g clip-path="url(#clip-path)" data-name="Group 455" id="Group_455">
                <g data-name="Group 454" id="Group_454" transform="translate(6.75 11.122)">
                    <path
                        d="M2477.872,2455s1.192-9.524,4.769-14.087,5.621-4.648,5.706-8.4,1.7-11.3,9.254-12.262,27.772-3.123,28.045-8.459c0,0,2.214,2.9,2.612,12.036s-6.354,30.742-14.659,36.022Z"
                        data-name="Path 459" fill="#034c3e" id="Path_459"
                        transform="translate(-2477.872 -2411.799)" />
                </g>
            </g>
            <path
                d="M2481.069,2332.562s3.431.3,5.262,5.195.7,35.243-6.42,43.424c0,0-51.828,3.032-53.489-8.508s10.9-15.16,14.86-28.189S2468.27,2319.193,2481.069,2332.562Z"
                data-name="Path 458" fill="#076855" id="Path_458"
                transform="translate(-2426.271 -2326.777)" />
        </g>
        <g data-name="Group 490" id="Group_490" transform="translate(163.991 487.708)">
            <g data-name="Group 471" id="Group_471">
                <g data-name="Group 457" id="Group_457" transform="translate(12.59 23.839)">
                    <path
                        d="M2627.137,2641.124s1,11.341-2.769,13.2l7.753,5.183,8.226-4.141s-.239-5.7.918-8.587Z"
                        data-name="Path 461" fill="#ff9f69" id="Path_461"
                        transform="translate(-2624.369 -2641.124)" />
                </g>
                <g data-name="Group 462" id="Group_462" transform="translate(0 19.192)">
                    <g clip-path="url(#clip-path-2)" data-name="Group 461" id="Group_461">
                        <g data-name="Group 458" id="Group_458" opacity="0.3"
                            transform="translate(7.266 -0.375)">
                            <path
                                d="M2589,2602.766s-7.67-.692-4.6,4.015,6.7,8.722,10.854,10.439,13.817,2.8,16.946-.942,2.077-5.455,2.077-5.455Z"
                                data-name="Path 463" fill="#137368" id="Path_463"
                                transform="translate(-2583.676 -2602.73)" />
                        </g>
                        <g data-name="Group 459" id="Group_459" opacity="0.3"
                            transform="translate(0 7.747)">
                            <path
                                d="M2530.389,2664.813s4.707,6.285,9.968,7.448,10.411,3.682,7.033,4.236-18.977-4.569-19.263-7.753Z"
                                data-name="Path 464" fill="#137368" id="Path_464"
                                transform="translate(-2528.128 -2664.813)" />
                        </g>
                        <g data-name="Group 460" id="Group_460" opacity="0.3"
                            transform="translate(29.711 18.933)">
                            <path
                                d="M2767.146,2750.329c-.111,0-12.294,0-11.888,1.92s11.531.038,11.74-.111S2767.146,2750.329,2767.146,2750.329Z"
                                data-name="Path 465" fill="#137368" id="Path_465"
                                transform="translate(-2755.248 -2750.329)" />
                        </g>
                    </g>
                    <path
                        d="M2533.852,2606.059s-3.49,1.08-2.56,5.4-.088,5.815-1.311,8.39-3.768,3.572.612,6.563,26.484,10.384,37.892,4.652c3.91-1.883-.113-4.153-.521-5.714s2.354-3.44,1.539-5.915-7.47-2.327-12.45-3.1S2541.117,2603.059,2533.852,2606.059Z"
                        data-name="Path 462" fill="#f7c139" id="Path_462"
                        transform="translate(-2528.127 -2605.595)" />
                </g>
                <g data-name="Group 468" id="Group_468" transform="translate(6.488)">
                    <g clip-path="url(#clip-path-3)" data-name="Group 467" id="Group_467">
                        <g data-name="Group 463" id="Group_463" transform="translate(2.17 16.088)">
                            <circle cx="6.479" cy="6.479" data-name="Ellipse 65" fill="#ffa471"
                                id="Ellipse_65" r="6.479" />
                        </g>
                        <g data-name="Group 464" id="Group_464"
                            transform="translate(31.028 16.727)">
                            <circle cx="6.479" cy="6.479" data-name="Ellipse 66" fill="#ffa471"
                                id="Ellipse_66" r="6.479" />
                        </g>
                        <g data-name="Group 465" id="Group_465"
                            transform="translate(25.442 13.696)">
                            <ellipse cx="0.452" cy="4.081" data-name="Ellipse 67" fill="#ed9569"
                                id="Ellipse_67" rx="0.452" ry="4.081"
                                transform="matrix(0.986, -0.168, 0.168, 0.986, 0, 0.152)" />
                        </g>
                        <g data-name="Group 466" id="Group_466" transform="translate(2.251 4.388)">
                            <path
                                d="M2598.975,2492.428l.434,1.621s.716,12.339,9.322,13.806,20.423,1.705,21.653-2.578l.04,8.407-3.45,8.844-8.09,2.419-8.081.356-12.62-6.543-3.252-7.812,2.419-2.564s2.525.742,2.816-1.758c.375-3.221-1.081-9.429-1.081-9.429Z"
                                data-name="Path 468" fill="#fff" id="Path_468"
                                transform="translate(-2594.93 -2492.428)" />
                        </g>
                    </g>
                    <path
                        d="M2613.288,2458.886s3.017,20.163-1.205,28.648-14.633,9.149-21.279,5.161-8.521-8.7-8.41-13.466c0,0-4.779-1.146-4.668-7.608s5.3-5.019,6.4-3.579c0,0,.416-4.119,4.292-4.728S2606.144,2463.04,2613.288,2458.886Z"
                        data-name="Path 467" fill="#feb98f" id="Path_467"
                        transform="translate(-2577.723 -2458.886)" />
                </g>
                <g data-name="Group 469" id="Group_469" transform="translate(20.676 6.339)">
                    <path
                        d="M2690.282,2507.385c2.574.156,5.13,1.636,2.945,1.634s-7.922-.224-6.928-.988S2688.851,2507.3,2690.282,2507.385Z"
                        data-name="Path 470" fill="#032d26" id="Path_470"
                        transform="translate(-2686.184 -2507.341)" />
                </g>
                <g data-name="Group 470" id="Group_470" transform="translate(33.585 6.761)">
                    <path
                        d="M2788.867,2510.573c2.577-.089,5.262,1.142,3.086,1.347s-7.907.529-6.99-.326S2787.434,2510.622,2788.867,2510.573Z"
                        data-name="Path 471" fill="#032d26" id="Path_471"
                        transform="translate(-2784.865 -2510.568)" />
                </g>
            </g>
            <g data-name="Group 477" id="Group_477" transform="translate(19.327 9.744)">
                <g data-name="Group 474" id="Group_474" transform="translate(0.524 0.551)">
                    <g clip-path="url(#clip-path-4)" data-name="Group 473" id="Group_473">
                        <g data-name="Group 472" id="Group_472" transform="translate(0.161 0.596)">
                            <ellipse cx="2.457" cy="2.865" data-name="Ellipse 68" fill="#0b473c"
                                id="Ellipse_68" rx="2.457" ry="2.865"
                                transform="translate(0 0.678) rotate(-7.93)" />
                        </g>
                    </g>
                    <path
                        d="M2688.512,2541.422a4.744,4.744,0,0,0-5-3.834,3.9,3.9,0,0,0-3.569,4.581c.448,2.291,1.527,3.038,4.78,2.955S2689.076,2543.58,2688.512,2541.422Z"
                        data-name="Path 472" fill="#fff" id="Path_472"
                        transform="translate(-2679.878 -2537.585)" />
                </g>
                <g data-name="Group 475" id="Group_475">
                    <path
                        d="M2684.219,2535.606a4.774,4.774,0,0,0-5.187-2.116,3.953,3.953,0,0,0-3.154,4.017c-.025,1.162.033,1.66.5,1.644s.067-.963.448-2.365a3.286,3.286,0,0,1,2.523-2.722,3.662,3.662,0,0,1,3.745.969c1.179,1.112,1.384,2.576,1.958,2.594C2685.325,2537.633,2684.693,2536.254,2684.219,2535.606Z"
                        data-name="Path 474" fill="#032d26" id="Path_474"
                        transform="translate(-2675.874 -2533.377)" />
                </g>
                <g data-name="Group 476" id="Group_476" transform="translate(3.971 2.887)">
                    <ellipse cx="0.622" cy="0.809" data-name="Ellipse 69" fill="#076855"
                        id="Ellipse_69" rx="0.622" ry="0.809"
                        transform="translate(0 0.34) rotate(-15.846)" />
                </g>
            </g>
            <g data-name="Group 483" id="Group_483" transform="translate(33.585 10.107)">
                <g data-name="Group 480" id="Group_480" transform="translate(0.477 0.501)">
                    <g clip-path="url(#clip-path-5)" data-name="Group 479" id="Group_479">
                        <g data-name="Group 478" id="Group_478" transform="translate(0.146 0.543)">
                            <ellipse cx="2.237" cy="2.608" data-name="Ellipse 70" fill="#0b473c"
                                id="Ellipse_70" rx="2.237" ry="2.608"
                                transform="translate(0 0.617) rotate(-7.93)" />
                        </g>
                    </g>
                    <path
                        d="M2796.373,2543.472a4.321,4.321,0,0,0-4.549-3.491,3.547,3.547,0,0,0-3.249,4.171c.408,2.086,1.39,2.766,4.353,2.69S2796.886,2545.436,2796.373,2543.472Z"
                        data-name="Path 475" fill="#fff" id="Path_475"
                        transform="translate(-2788.511 -2539.978)" />
                </g>
                <g data-name="Group 481" id="Group_481">
                    <path
                        d="M2792.464,2538.178a4.348,4.348,0,0,0-4.723-1.927,3.6,3.6,0,0,0-2.872,3.657c-.023,1.058.031,1.511.453,1.5s.061-.876.408-2.154a2.991,2.991,0,0,1,2.3-2.479,3.334,3.334,0,0,1,3.41.882c1.073,1.012,1.26,2.346,1.783,2.361C2793.47,2540.023,2792.895,2538.767,2792.464,2538.178Z"
                        data-name="Path 477" fill="#032d26" id="Path_477"
                        transform="translate(-2784.865 -2536.147)" />
                </g>
                <g data-name="Group 482" id="Group_482" transform="translate(3.616 2.629)">
                    <ellipse cx="0.567" cy="0.737" data-name="Ellipse 71" fill="#076855"
                        id="Ellipse_71" rx="0.567" ry="0.737"
                        transform="translate(0 0.31) rotate(-15.846)" />
                </g>
            </g>
            <g data-name="Group 485" id="Group_485" opacity="0.28"
                transform="translate(16.603 20.382)">
                <g data-name="Group 484" id="Group_484">
                    <path
                        d="M2670.619,2619.467h-.476a30.241,30.241,0,0,1-14.818-3.7.582.582,0,1,1,.615-.989,29.672,29.672,0,0,0,14.21,3.521c7.509.046,8.776-1,8.9-1.126a.583.583,0,0,1,1.063.466C2679.932,2618.2,2678.627,2619.467,2670.619,2619.467Zm8.394-2.2h0Zm0,0h0Zm0,0Z"
                        data-name="Path 478" fill="#2baf76" id="Path_478"
                        transform="translate(-2655.05 -2614.692)" />
                </g>
            </g>
            <g data-name="Group 487" id="Group_487" transform="translate(15.814 23.839)">
                <g data-name="Group 486" id="Group_486" opacity="0.28">
                    <path
                        d="M2664.589,2645.9h-.477a30.241,30.241,0,0,1-14.819-3.7.582.582,0,0,1,.616-.989,29.661,29.661,0,0,0,14.21,3.521c7.509.046,8.777-1,8.9-1.126a.583.583,0,0,1,1.063.466C2673.9,2644.627,2672.6,2645.9,2664.589,2645.9Zm8.394-2.2h0Zm0,0h0Zm0,0Z"
                        data-name="Path 479" fill="#2baf76" id="Path_479"
                        transform="translate(-2649.019 -2641.124)" />
                </g>
            </g>
            <g data-name="Group 489" id="Group_489" opacity="0.19"
                transform="translate(14.347 27.267)">
                <g data-name="Group 488" id="Group_488">
                    <path
                        d="M2653.371,2672.1h-.476a30.244,30.244,0,0,1-14.819-3.7.582.582,0,1,1,.615-.989,29.668,29.668,0,0,0,14.21,3.521c7.509.045,8.776-1,8.9-1.126a.583.583,0,0,1,1.063.466C2662.684,2670.826,2661.379,2672.1,2653.371,2672.1Zm8.394-2.2h0Zm0,0h0Zm0,0Z"
                        data-name="Path 480" fill="#2baf76" id="Path_480"
                        transform="translate(-2637.802 -2667.323)" />
                </g>
            </g>
        </g>
    </g>
</svg>
